<?xml version="1.0" encoding="UTF-8"?><svg id="Layer_2" xmlns="http://www.w3.org/2000/svg" viewBox="0 0 290.88 59.72"><defs><style>.cls-1{fill:#1d1d1b;}</style></defs><g id="Layer_1-2"><g><path class="cls-1" d="m122.26,59.04h-21.55V13.9h21.55c14.91,0,23.59,9.62,23.59,22.57s-8.68,22.57-23.59,22.57Zm-1.76-35.04h-5.29v24.94h5.29c7.25,0,10.64-5.35,10.64-12.47s-3.39-12.47-10.64-12.47Z"/><path class="cls-1" d="m186.91,57.35c-1.83,1.49-4.41,2.37-8,2.37-6.37,0-8.54-2.92-9.22-5.83-1.76,4-5.56,5.83-10.71,5.83-5.83,0-9.56-3.25-9.56-8.54,0-5.63,4.81-7.86,12.34-7.86,2.24,0,4.74.2,7.39.54v-5.63c0-2.44-1.02-3.8-2.98-3.8s-2.85,1.15-2.85,2.71c0,.61.14,1.29.41,2.03l-12.47,2.91c-.95-1.9-1.42-3.73-1.42-5.35,0-5.96,6.03-9.96,17.01-9.96s16.27,4.34,16.27,13.01v10.64c0,1.56.41,2.44,2.1,2.44.68,0,1.22-.07,1.7-.27v4.75Zm-16.61-33.42h-8.34l3.52-10.03h11.66l-6.85,10.03Zm-1.08,23.66c-3.86.54-6.1,1.15-6.1,3.52,0,1.29.88,2.17,2.37,2.17,2.98,0,3.73-2.64,3.73-5.08v-.61Z"/><path class="cls-1" d="m210.77,44.47c.27-.95.47-2.17.47-3.25,0-1.69-.47-3.12-2.1-3.12-3.12,0-3.86,5.15-3.86,13.01v7.93h-13.96v-31.59h10.1l2.51,13.29c.07-8.61,4.07-13.96,9.22-13.96s7.32,3.25,7.32,7.73c0,3.12-1.15,6.85-3.39,10.44l-6.3-.47Z"/><path class="cls-1" d="m243.43,40.54c.07-.41.14-.81.14-1.42,0-2.37-.95-3.93-2.98-3.93-2.85,0-4.41,2.85-4.41,8.07,0,4.68,1.42,8.07,4.61,8.07,2.37,0,3.39-1.63,3.39-3.86,0-.47-.07-1.08-.14-1.56l10.84,1.02c.14.54.2,1.36.2,2.03,0,6.44-5.36,10.78-14.64,10.78-12.07,0-18.3-6.44-18.3-16.47,0-8.95,6.17-16.47,18.3-16.47,8.88,0,14.23,4.41,14.23,11.93,0,.47-.07.81-.14,1.08l-11.12.75Z"/><path class="cls-1" d="m272.17,45.08c.07,3.93,1.56,7.05,4.81,7.05,2.24,0,2.98-1.36,2.98-3.05,0-.41-.07-.88-.13-1.29l10.64,1.02c.07.61.14,1.29.14,1.83,0,6.58-6.24,9.08-14.98,9.08-12.67,0-17.55-6.98-17.55-16.47,0-8.81,6.03-16.47,17.76-16.47,9.76,0,15.05,5.29,15.05,13.49,0,1.29-.27,3.32-.54,4.81h-18.16Zm0-4.47h6.91c.14-.81.2-1.56.2-2.24,0-2.17-.81-3.59-2.85-3.59-2.78,0-4.07,2.98-4.27,5.83Z"/></g><path class="cls-1" d="m0,17.68s27.07,17.9,46.93,17.9S77.93,76.03,0,48.93c1.51-25.39,0-31.25,0-31.25Z"/><path class="cls-1" d="m90.21,36.49c-.36-2.67-1.95-5.06-3.93-6.89-1.6-1.47-3.46-2.62-5.35-3.71V9.88c0-5.46-4.43-9.88-9.88-9.88h-12.31v7.41h-14.82V0h-12.82c-5.46,0-9.88,4.43-9.88,9.88v9.19c9.02,3.55,18.7,6.51,25.72,6.51,12.02,0,21.81,9.09,21.81,20.26,0,5.2-2.16,10.07-6.03,13.87h8.34c5.46,0,9.88-4.43,9.88-9.88v-3.5c2.49.17,5.04-.76,6.81-2.53,1.88-1.89,2.83-4.67,2.47-7.32Z"/></g></svg>
